# Blender v3.5.0 OBJ File: 'diamond.blend'
# www.blender.org
mtllib diamond.mtl
o Cube_Cube.001
v -0.474172 0.307000 0.474172
v -0.474172 0.307000 -0.474172
v 0.474172 0.307000 0.474172
v 0.474172 0.307000 -0.474172
v -0.697312 0.000000 0.697312
v -0.680000 0.307000 0.000000
v -0.697312 0.000000 -0.697312
v 0.000000 0.307000 -0.680000
v 0.697312 0.000000 -0.697312
v 0.680000 0.307000 0.000000
v 0.697312 0.000000 0.697312
v 0.000000 0.307000 0.680000
v 0.000000 0.307000 0.000000
v 0.000000 0.000000 1.000000
v 1.000000 0.000000 0.000000
v 0.000000 0.000000 -1.000000
v -1.000000 0.000000 0.000000
v -0.577086 0.307000 -0.237086
v 0.237086 0.307000 -0.577086
v 0.577086 0.307000 0.237086
v -0.237086 0.307000 0.577086
v -0.577086 0.307000 0.237086
v -0.237086 0.307000 -0.577086
v 0.577086 0.307000 -0.237086
v 0.237086 0.307000 0.577086
v 0.000000 0.307000 0.340000
v 0.000000 0.307000 -0.340000
v 0.340000 0.307000 0.000000
v -0.340000 0.307000 0.000000
v -0.375503 0.000000 0.914003
v 0.375503 0.000000 0.914003
v 0.914003 0.000000 0.375503
v 0.914003 0.000000 -0.375503
v 0.375503 0.000000 -0.914003
v -0.375503 0.000000 -0.914003
v -0.914003 0.000000 -0.375503
v -0.914003 0.000000 0.375503
v -0.851168 0.166000 0.349688
v -0.349688 0.166000 -0.851168
v 0.851168 0.166000 -0.349688
v 0.349688 0.166000 0.851168
v -0.288543 0.307000 -0.288543
v 0.288543 0.307000 -0.288543
v 0.288543 0.307000 0.288543
v -0.288543 0.307000 0.288543
v -0.349688 0.166000 0.851168
v 0.851168 0.166000 0.349688
v 0.349688 0.166000 -0.851168
v -0.851168 0.166000 -0.349688
v -0.000000 -1.038590 -0.000000
v -0.377383 -0.038590 0.911083
v -0.911083 -0.038590 -0.377383
v 0.377383 -0.038590 -0.911083
v 0.911083 -0.038590 0.377383
v 0.382683 -0.038590 0.923880
v 0.923880 -0.038590 -0.382683
v -0.382683 -0.038590 -0.923880
v -0.923880 -0.038590 0.382683
v -0.201711 -0.538590 0.486974
v 0.002854 -0.038590 0.988127
v 0.696693 -0.038590 0.700730
v 0.988127 -0.038590 -0.002854
v 0.700730 -0.038590 -0.696693
v -0.002854 -0.038590 -0.988127
v -0.696693 -0.038590 -0.700730
v -0.988127 -0.038590 0.002854
v -0.700730 -0.038590 0.696693
v -0.486974 -0.538590 -0.201711
v 0.201711 -0.538590 -0.486974
v 0.486974 -0.538590 0.201711
v 0.204544 -0.538590 0.493814
v 0.493814 -0.538590 -0.204544
v -0.204544 -0.538590 -0.493814
v -0.493814 -0.538590 0.204544
v -0.536408 -0.011577 0.805658
v 0.187751 -0.011577 0.957001
v 0.805658 -0.011577 0.536408
v 0.957001 -0.011577 -0.187751
v 0.536408 -0.011577 -0.805658
v -0.187751 -0.011577 -0.957001
v -0.805658 -0.011577 -0.536408
v -0.957001 -0.011577 0.187751
v -0.187751 -0.011577 0.957001
v 0.536408 -0.011577 0.805658
v 0.957001 -0.011577 0.187751
v 0.805658 -0.011577 -0.536408
v 0.187751 -0.011577 -0.957001
v -0.536408 -0.011577 -0.805658
v -0.957001 -0.011577 -0.187751
v -0.805658 -0.011577 0.536408
v -0.187264 -0.027013 0.949605
v 0.539688 -0.027013 0.812305
v 0.949605 -0.027013 0.187264
v 0.812305 -0.027013 -0.539688
v 0.187264 -0.027013 -0.949605
v -0.539688 -0.027013 -0.812305
v -0.949605 -0.027013 -0.187264
v -0.812305 -0.027013 0.539688
v 0.192769 -0.027013 0.956003
v 0.803888 -0.027013 0.539056
v 0.956003 -0.027013 -0.192769
v 0.539056 -0.027013 -0.803888
v -0.192769 -0.027013 -0.956003
v -0.803888 -0.027013 -0.539056
v -0.956003 -0.027013 0.192769
v -0.539056 -0.027013 0.803888
v -0.376443 -0.019295 0.912543
v 0.001427 -0.019295 0.994063
v 0.379093 -0.019295 0.918941
v 0.697003 -0.019295 0.699021
v 0.912543 -0.019295 0.376443
v 0.994063 -0.019295 -0.001427
v 0.918941 -0.019295 -0.379093
v 0.699021 -0.019295 -0.697003
v 0.376443 -0.019295 -0.912543
v -0.001427 -0.019295 -0.994063
v -0.379093 -0.019295 -0.918941
v -0.697003 -0.019295 -0.699021
v -0.912543 -0.019295 -0.376443
v -0.994063 -0.019295 0.001427
v -0.918941 -0.019295 0.379093
v -0.699021 -0.019295 0.697003
v -0.537732 -0.019295 0.804773
v -0.808981 -0.019295 0.538048
v -0.956502 -0.019295 0.190260
v -0.953303 -0.019295 -0.187508
v -0.804773 -0.019295 -0.537732
v -0.538048 -0.019295 -0.808981
v -0.190260 -0.019295 -0.956502
v 0.187508 -0.019295 -0.953303
v 0.537732 -0.019295 -0.804773
v 0.808981 -0.019295 -0.538048
v 0.956502 -0.019295 -0.190260
v 0.953303 -0.019295 0.187508
v 0.804773 -0.019295 0.537732
v 0.538048 -0.019295 0.808981
v 0.190260 -0.019295 0.956502
v -0.187508 -0.019295 0.953303
vt 0.000000 0.000000
vt 0.000000 0.000000
vt 0.625000 0.562500
vt 0.000000 0.000000
vt 0.000000 0.000000
vt 0.812500 0.500000
vt 0.000000 0.000000
vt 0.000000 0.000000
vt 0.812500 0.750000
vt 0.500000 0.812500
vt 0.000000 0.000000
vt 0.000000 0.000000
vt 0.250000 0.406250
vt 0.812500 0.687500
vt 0.875000 0.687500
vt 0.875000 0.750000
vt 0.687500 0.687500
vt 0.750000 0.687500
vt 0.750000 0.750000
vt 0.687500 0.750000
vt 0.687500 0.562500
vt 0.750000 0.562500
vt 0.750000 0.625000
vt 0.687500 0.625000
vt 0.812500 0.562500
vt 0.875000 0.562500
vt 0.875000 0.625000
vt 0.812500 0.625000
vt 0.000000 0.000000
vt 0.000000 0.000000
vt 0.687500 0.500000
vt 0.500000 0.125000
vt 0.000000 0.000000
vt 0.500000 0.187500
vt 0.500000 0.156250
vt 0.000000 0.000000
vt 0.000000 0.000000
vt 0.000000 0.000000
vt 0.000000 0.000000
vt 0.000000 0.000000
vt 0.000000 0.000000
vt 0.500000 0.937500
vt 0.250000 0.468750
vt 0.250000 0.406250
vt 0.000000 0.000000
vt 0.000000 0.000000
vt 0.000000 0.000000
vt 0.625000 0.500000
vt 0.500000 0.375000
vt 0.500000 0.437500
vt 0.500000 0.406250
vt 0.875000 0.500000
vt 0.625000 0.687500
vt 0.000000 0.000000
vt 0.750000 0.500000
vt 0.625000 0.625000
vt 0.625000 0.750000
vt 0.500000 0.906250
vt 0.500000 0.875000
vt 0.500000 0.250000
vt 0.500000 0.218750
vt 0.500000 0.500000
vt 0.500000 0.468750
vt 0.000000 0.000000
vt 0.000000 0.000000
vt 0.000000 0.000000
vt 0.500000 0.625000
vt 0.500000 0.687500
vt 0.500000 0.656250
vt 0.500000 0.750000
vt 0.500000 0.718750
vt 0.500000 0.562500
vt 0.250000 0.281250
vt 0.250000 0.281250
vt 0.500000 0.312500
vt 0.250000 0.156250
vt 0.250000 0.156250
vt 0.500000 0.062500
vt 0.250000 0.031250
vt 0.250000 0.031250
vt 0.375000 0.875000
vt 0.437500 0.875000
vt 0.437500 0.937500
vt 0.375000 0.750000
vt 0.437500 0.750000
vt 0.437500 0.812500
vt 0.375000 0.625000
vt 0.437500 0.625000
vt 0.437500 0.687500
vt 0.375000 0.500000
vt 0.437500 0.500000
vt 0.437500 0.562500
vt 0.375000 0.375000
vt 0.437500 0.375000
vt 0.437500 0.437500
vt 0.375000 0.250000
vt 0.437500 0.250000
vt 0.437500 0.312500
vt 0.375000 0.125000
vt 0.437500 0.125000
vt 0.437500 0.187500
vt 0.375000 0.000000
vt 0.437500 0.000000
vt 0.437500 0.062500
vt 0.500000 0.062500
vt 0.500000 0.093750
vt 0.500000 0.125000
vt 0.500000 0.000000
vt 0.500000 0.031250
vt 0.500000 0.187500
vt 0.500000 0.218750
vt 0.500000 0.250000
vt 0.500000 0.156250
vt 0.500000 0.312500
vt 0.500000 0.343750
vt 0.500000 0.375000
vt 0.500000 0.281250
vt 0.500000 0.437500
vt 0.500000 0.468750
vt 0.500000 0.500000
vt 0.500000 0.406250
vt 0.500000 0.562500
vt 0.500000 0.593750
vt 0.500000 0.625000
vt 0.500000 0.531250
vt 0.500000 0.687500
vt 0.500000 0.718750
vt 0.500000 0.750000
vt 0.500000 0.656250
vt 0.500000 0.812500
vt 0.500000 0.843750
vt 0.500000 0.875000
vt 0.500000 0.781250
vt 0.500000 0.937500
vt 0.500000 0.968750
vt 0.500000 1.000000
vt 0.500000 0.906250
vt 0.500000 0.937500
vt 0.500000 0.906250
vt 0.375000 0.656250
vt 0.500000 0.843750
vt 0.375000 0.625000
vt 0.250000 0.406250
vt 0.500000 0.750000
vt 0.500000 0.718750
vt 0.500000 0.687500
vt 0.500000 0.656250
vt 0.375000 0.468750
vt 0.500000 0.593750
vt 0.375000 0.437500
vt 0.250000 0.281250
vt 0.500000 0.500000
vt 0.500000 0.468750
vt 0.500000 0.437500
vt 0.500000 0.406250
vt 0.375000 0.281250
vt 0.500000 0.343750
vt 0.375000 0.250000
vt 0.250000 0.156250
vt 0.500000 0.250000
vt 0.500000 0.218750
vt 0.500000 0.187500
vt 0.500000 0.156250
vt 0.375000 0.093750
vt 0.500000 0.093750
vt 0.375000 0.062500
vt 0.250000 0.031250
vt 0.375000 0.250000
vt 0.500000 0.468750
vt 0.250000 0.093750
vt 0.500000 0.281250
vt 0.250000 0.218750
vt 0.500000 0.531250
vt 0.250000 0.343750
vt 0.500000 0.781250
vt 0.250000 0.468750
vt 0.500000 0.968750
vn 0.3942 0.9029 -0.1711
vn -0.1711 0.9029 -0.3942
vn -0.1711 0.9029 0.3942
vn 0.2089 0.3531 0.9120
vn 0.0000 1.0000 0.0000
vn 0.1711 0.9029 -0.3942
vn -0.9120 0.3531 -0.2089
vn 0.4931 0.7168 -0.4931
vn -0.4931 0.7168 0.4931
vn 0.4931 0.7168 0.4931
vn -0.5230 0.3509 0.7767
vn 0.5230 0.3509 0.7767
vn -0.4931 0.7168 -0.4931
vn 0.1711 0.9029 0.3942
vn -0.3942 0.9029 -0.1711
vn 0.2089 0.3531 -0.9120
vn 0.3942 0.9029 0.1711
vn -0.3942 0.9029 0.1711
vn -0.2089 0.3531 0.9120
vn -0.7767 0.3509 -0.5230
vn 0.5230 0.3509 -0.7767
vn -0.6923 0.7216 0.0000
vn 0.0000 0.7216 -0.6923
vn 0.6923 0.7216 0.0000
vn 0.0000 0.7216 0.6923
vn 0.9120 0.3531 0.2089
vn 0.7767 0.3509 0.5230
vn 0.9120 0.3531 -0.2089
vn 0.7767 0.3509 -0.5230
vn -0.2089 0.3531 -0.9120
vn -0.5230 0.3509 -0.7767
vn -0.9120 0.3531 0.2089
vn -0.7767 0.3509 0.5230
vn -0.0120 -0.7001 0.7139
vn 0.5133 -0.7001 0.4963
vn 0.7139 -0.7001 0.0120
vn 0.4963 -0.7001 -0.5133
vn 0.0120 -0.7001 -0.7139
vn -0.5133 -0.7001 -0.4963
vn -0.7139 -0.7001 -0.0120
vn -0.4963 -0.7001 0.5133
vn -0.6098 -0.6636 0.4334
vn -0.4927 -0.7054 0.5095
vn -0.4147 -0.6609 0.6255
vn -0.7355 -0.6609 -0.1490
vn -0.7087 -0.7054 -0.0119
vn -0.7376 -0.6636 0.1248
vn -0.4334 -0.6636 -0.6098
vn -0.5095 -0.7054 -0.4927
vn -0.6255 -0.6609 -0.4147
vn 0.1490 -0.6609 -0.7355
vn 0.0119 -0.7054 -0.7087
vn -0.1248 -0.6636 -0.7376
vn 0.6098 -0.6636 -0.4334
vn 0.4927 -0.7054 -0.5095
vn 0.4147 -0.6609 -0.6255
vn 0.7355 -0.6609 0.1490
vn 0.7087 -0.7054 0.0119
vn 0.7376 -0.6636 -0.1248
vn 0.4334 -0.6636 0.6098
vn 0.5095 -0.7054 0.4927
vn 0.6255 -0.6609 0.4147
vn -0.1490 -0.6609 0.7355
vn -0.0119 -0.7054 0.7087
vn 0.1248 -0.6636 0.7376
vn -0.1941 -0.3402 0.9201
vn 0.1989 0.2025 0.9589
vn 0.5502 0.1790 0.8156
vn 0.8306 -0.0255 0.5562
vn 0.9201 -0.3402 0.1941
vn 0.9589 0.2025 -0.1989
vn 0.8156 0.1790 -0.5502
vn 0.5562 -0.0255 -0.8306
vn 0.1941 -0.3402 -0.9201
vn -0.1989 0.2025 -0.9589
vn -0.5502 0.1790 -0.8156
vn -0.8306 -0.0255 -0.5562
vn -0.9201 -0.3402 -0.1941
vn -0.9589 0.2025 0.1989
vn -0.8156 0.1790 0.5502
vn -0.5562 -0.0255 0.8306
vn -0.5562 0.0257 0.8306
vn -0.5545 0.0255 0.8318
vn -0.5545 -0.0257 0.8318
vn -0.7710 0.3401 0.5385
vn -0.7758 0.3402 0.5315
vn -0.8027 0.1776 0.5693
vn -0.9594 -0.1996 0.1991
vn -0.9620 -0.2025 0.1832
vn -0.9626 0.1996 0.1832
vn -0.9595 -0.1776 -0.2188
vn -0.9641 -0.1790 -0.1962
vn -0.9183 -0.3401 -0.2025
vn -0.8306 0.0257 -0.5562
vn -0.8318 0.0255 -0.5545
vn -0.8318 -0.0257 -0.5545
vn -0.5385 0.3401 -0.7710
vn -0.5315 0.3402 -0.7758
vn -0.5693 0.1776 -0.8027
vn -0.1991 -0.1996 -0.9594
vn -0.1832 -0.2025 -0.9620
vn -0.1832 0.1996 -0.9626
vn 0.2188 -0.1776 -0.9595
vn 0.1962 -0.1790 -0.9641
vn 0.2025 -0.3401 -0.9183
vn 0.5562 0.0257 -0.8306
vn 0.5545 0.0255 -0.8318
vn 0.5545 -0.0257 -0.8318
vn 0.7710 0.3401 -0.5385
vn 0.7758 0.3402 -0.5315
vn 0.8027 0.1776 -0.5693
vn 0.9594 -0.1996 -0.1991
vn 0.9620 -0.2025 -0.1832
vn 0.9626 0.1996 -0.1832
vn 0.9595 -0.1776 0.2188
vn 0.9641 -0.1790 0.1962
vn 0.9183 -0.3401 0.2025
vn 0.8306 0.0257 0.5562
vn 0.8318 0.0255 0.5545
vn 0.8318 -0.0257 0.5545
vn 0.5385 0.3401 0.7710
vn 0.5315 0.3402 0.7758
vn 0.5693 0.1776 0.8027
vn 0.1991 -0.1996 0.9594
vn 0.1832 -0.2025 0.9620
vn 0.1832 0.1996 0.9626
vn -0.2188 -0.1776 0.9595
vn -0.1962 -0.1790 0.9641
vn -0.2025 -0.3401 0.9183
usemtl Diamond
s off
f 10/1/1 40/2/1 24/3/1
f 8/4/2 39/5/2 23/6/2
f 1/7/3 46/8/3 21/9/3
f 31/10/4 41/11/4 14/12/4 76/13/4
f 45/14/5 22/15/5 1/16/5 21/9/5
f 44/17/5 26/18/5 12/19/5 25/20/5
f 43/21/5 27/22/5 13/23/5 28/24/5
f 42/25/5 18/26/5 6/27/5 29/28/5
f 4/29/6 48/30/6 19/31/6
f 17/32/7 49/33/7 36/34/7 89/35/7
f 9/36/8 48/30/8 4/29/8 40/2/8
f 5/37/9 46/8/9 1/7/9 38/38/9
f 11/39/10 47/40/10 3/41/10 41/11/10
f 30/42/11 46/8/11 5/37/11 75/43/11
f 41/11/12 31/10/12 84/44/12 11/39/12
f 7/45/13 49/33/13 2/46/13 39/5/13
f 12/47/14 41/11/14 25/20/14
f 24/3/1 40/2/1 4/48/1
f 2/46/15 49/33/15 18/26/15
f 16/49/16 48/30/16 34/50/16 87/51/16
f 23/6/2 39/5/2 2/52/2
f 3/41/17 47/40/17 20/53/17
f 6/54/18 38/38/18 22/15/18
f 21/9/3 46/8/3 12/19/3
f 27/22/5 42/25/5 29/28/5 13/23/5
f 8/55/5 23/6/5 42/25/5 27/22/5
f 23/6/5 2/52/5 18/26/5 42/25/5
f 24/3/5 43/21/5 28/24/5 10/56/5
f 4/48/5 19/31/5 43/21/5 24/3/5
f 19/31/5 8/55/5 27/22/5 43/21/5
f 20/53/5 44/17/5 25/20/5 3/57/5
f 10/56/5 28/24/5 44/17/5 20/53/5
f 28/24/5 13/23/5 26/18/5 44/17/5
f 26/18/5 45/14/5 21/9/5 12/19/5
f 13/23/5 29/28/5 45/14/5 26/18/5
f 29/28/5 6/27/5 22/15/5 45/14/5
f 30/42/19 83/58/19 14/59/19 46/8/19
f 20/53/17 47/40/17 10/56/17
f 19/31/6 48/30/6 8/55/6
f 22/15/18 38/38/18 1/16/18
f 18/26/15 49/33/15 6/27/15
f 36/34/20 49/33/20 7/60/20 81/61/20
f 34/50/21 48/30/21 9/62/21 79/63/21
f 17/64/22 38/38/22 6/54/22 49/33/22
f 16/65/23 39/5/23 8/4/23 48/30/23
f 25/20/14 41/11/14 3/57/14
f 15/66/24 40/2/24 10/1/24 47/40/24
f 14/12/25 41/11/25 12/47/25 46/8/25
f 15/67/26 47/40/26 32/68/26 85/69/26
f 32/68/27 47/40/27 11/70/27 77/71/27
f 33/72/28 40/2/28 15/66/28 78/73/28
f 40/2/29 33/72/29 86/74/29 9/36/29
f 35/75/30 39/5/30 16/65/30 80/76/30
f 39/5/31 35/75/31 88/77/31 7/45/31
f 37/78/32 38/38/32 17/64/32 82/79/32
f 38/38/33 37/78/33 90/80/33 5/37/33
f 50/81/34 71/82/34 59/83/34
f 50/84/35 70/85/35 71/86/35
f 50/87/36 72/88/36 70/89/36
f 50/90/37 69/91/37 72/92/37
f 50/93/38 73/94/38 69/95/38
f 50/96/39 68/97/39 73/98/39
f 50/99/40 74/100/40 68/101/40
f 50/102/41 59/103/41 74/104/41
f 74/104/42 67/105/42 98/106/42 58/107/42
f 74/104/43 59/103/43 67/105/43
f 59/103/44 51/108/44 106/109/44 67/105/44
f 68/101/45 66/110/45 97/111/45 52/112/45
f 68/101/46 74/100/46 66/110/46
f 74/100/47 58/107/47 105/113/47 66/110/47
f 73/98/48 65/114/48 96/115/48 57/116/48
f 73/98/49 68/97/49 65/114/49
f 68/97/50 52/112/50 104/117/50 65/114/50
f 69/95/51 64/118/51 95/119/51 53/120/51
f 69/95/52 73/94/52 64/118/52
f 73/94/53 57/116/53 103/121/53 64/118/53
f 72/92/54 63/122/54 94/123/54 56/124/54
f 72/92/55 69/91/55 63/122/55
f 69/91/56 53/120/56 102/125/56 63/122/56
f 70/89/57 62/126/57 93/127/57 54/128/57
f 70/89/58 72/88/58 62/126/58
f 72/88/59 56/124/59 101/129/59 62/126/59
f 71/86/60 61/130/60 92/131/60 55/132/60
f 71/86/61 70/85/61 61/130/61
f 70/85/62 54/128/62 100/133/62 61/130/62
f 59/83/63 60/134/63 91/135/63 51/136/63
f 59/83/64 71/82/64 60/134/64
f 71/82/65 55/132/65 99/137/65 60/134/65
f 138/138/66 108/139/66 14/59/66 83/58/66
f 137/140/67 109/141/67 31/10/67 76/13/67
f 136/142/68 110/143/68 11/39/68 84/44/68
f 135/144/69 111/145/69 32/68/69 77/71/69
f 134/146/70 112/147/70 15/67/70 85/69/70
f 133/148/71 113/149/71 33/72/71 78/73/71
f 132/150/72 114/151/72 9/36/72 86/74/72
f 131/152/73 115/153/73 34/50/73 79/63/73
f 130/154/74 116/155/74 16/49/74 87/51/74
f 129/156/75 117/157/75 35/75/75 80/76/75
f 128/158/76 118/159/76 7/45/76 88/77/76
f 127/160/77 119/161/77 36/34/77 81/61/77
f 126/162/78 120/163/78 17/32/78 89/35/78
f 125/164/79 121/165/79 37/78/79 82/79/79
f 124/166/80 122/167/80 5/37/80 90/80/80
f 123/168/81 107/169/81 30/42/81 75/43/81
f 122/167/82 123/168/82 75/43/82 5/37/82
f 67/105/83 106/109/83 123/168/83 122/167/83
f 106/109/84 51/108/84 107/169/84 123/168/84
f 121/165/85 124/166/85 90/80/85 37/78/85
f 58/107/86 98/106/86 124/166/86 121/165/86
f 98/106/87 67/105/87 122/167/87 124/166/87
f 120/170/88 125/164/88 82/79/88 17/64/88
f 66/110/89 105/113/89 125/164/89 120/170/89
f 105/113/90 58/107/90 121/165/90 125/164/90
f 119/161/91 126/162/91 89/35/91 36/34/91
f 52/112/92 97/111/92 126/162/92 119/161/92
f 97/111/93 66/110/93 120/163/93 126/162/93
f 118/171/94 127/160/94 81/61/94 7/60/94
f 65/114/95 104/117/95 127/160/95 118/171/95
f 104/117/96 52/112/96 119/161/96 127/160/96
f 117/157/97 128/158/97 88/77/97 35/75/97
f 57/116/98 96/115/98 128/158/98 117/157/98
f 96/115/99 65/114/99 118/159/99 128/158/99
f 116/172/100 129/156/100 80/76/100 16/65/100
f 64/118/101 103/121/101 129/156/101 116/172/101
f 103/121/102 57/116/102 117/157/102 129/156/102
f 115/153/103 130/154/103 87/51/103 34/50/103
f 53/120/104 95/119/104 130/154/104 115/153/104
f 95/119/105 64/118/105 116/155/105 130/154/105
f 114/173/106 131/152/106 79/63/106 9/62/106
f 63/122/107 102/125/107 131/152/107 114/173/107
f 102/125/108 53/120/108 115/153/108 131/152/108
f 113/149/109 132/150/109 86/74/109 33/72/109
f 56/124/110 94/123/110 132/150/110 113/149/110
f 94/123/111 63/122/111 114/151/111 132/150/111
f 112/174/112 133/148/112 78/73/112 15/66/112
f 62/126/113 101/129/113 133/148/113 112/174/113
f 101/129/114 56/124/114 113/149/114 133/148/114
f 111/145/115 134/146/115 85/69/115 32/68/115
f 54/128/116 93/127/116 134/146/116 111/145/116
f 93/127/117 62/126/117 112/147/117 134/146/117
f 110/175/118 135/144/118 77/71/118 11/70/118
f 61/130/119 100/133/119 135/144/119 110/175/119
f 100/133/120 54/128/120 111/145/120 135/144/120
f 109/141/121 136/142/121 84/44/121 31/10/121
f 55/132/122 92/131/122 136/142/122 109/141/122
f 92/131/123 61/130/123 110/143/123 136/142/123
f 108/176/124 137/140/124 76/13/124 14/12/124
f 60/134/125 99/137/125 137/140/125 108/176/125
f 99/137/126 55/132/126 109/141/126 137/140/126
f 107/177/127 138/138/127 83/58/127 30/42/127
f 51/136/128 91/135/128 138/138/128 107/177/128
f 91/135/129 60/134/129 108/139/129 138/138/129
